<?xml version="1.0" encoding="utf-8"?>
<!-- Generator: Adobe Illustrator 16.0.0, SVG Export Plug-In . SVG Version: 6.00 Build 0)  -->
<!DOCTYPE svg PUBLIC "-//W3C//DTD SVG 1.1//EN" "http://www.w3.org/Graphics/SVG/1.1/DTD/svg11.dtd">
<svg version="1.1" id="Layer_1" xmlns="http://www.w3.org/2000/svg" xmlns:xlink="http://www.w3.org/1999/xlink" x="0px" y="0px"
	 width="330px" height="300px" viewBox="0 0 330 300" enable-background="new 0 0 330 300" xml:space="preserve">
<g>
	<path fill="#B3B3B3" d="M242.369,210.906c8.329-0.348,47.554,1.04,55.54,3.472c-2.431-14.058-20.308-42.87-20.308-42.87
		l-31.068,1.736"/>
	<path fill="#402206" d="M258.108,271.194c0.592,5.319,0.306,10.295,0.142,11.74c-6.074,3.212-21.522,6.942-29.506,3.992
		c0.781-7.376,15.072-2.575,17.501-14.291C249.772,271.54,258.108,271.194,258.108,271.194z"/>
	<path fill="#402206" d="M283.388,273.445c1.503,5.556,2.66,10.07,2.66,10.07c5.9,4.51,18.048,7.52,21.753,6.825
		c2.083-10.068-11.396-7.868-12.983-17.77C292.851,273.035,283.388,273.445,283.388,273.445z"/>
	<path d="M235.831,166.534c0.23,13.421,8.098,79.837,10.414,106.102c4.859,2.199,11.917-0.345,11.917-0.345
		c-0.811-17.472-5.165-85.765-3.894-93.17c3.818-1.504,9.564-0.05,9.564-0.05c2.429,5.321,17.472,88.011,19.555,94.374
		c6.709,3.24,11.743,0.429,11.743,0.429c-4.049-15.39-12.787-103.062-13.48-108.383C274.941,160.4,237.913,165.839,235.831,166.534z
		"/>
	<path fill="#99C4B3" d="M248.531,86.203c-0.463,8.563-8.534,66.677-6.685,79.867c17.125,0.347,29.392,1.042,29.392,1.042
		L273.669,86C273.669,86,248.762,84.468,248.531,86.203z"/>
	<path fill="#9EAEB3" d="M215.467,167.646c-0.215,2.343,12.193,0.911,12.147-0.131C227.269,165.174,216.681,164,215.467,167.646z"/>
	<path fill="#FFD8C2" d="M216.941,166.476c0.436,3.124-0.608,7.637-1.171,10.153c-0.413,1.833-1.215,6.551-1.735,11.237
		s1.389,5.989,3.601,6.899c1.929,0.795,5.727,2.43,8.591-0.347c0.218-0.911-3.211-15.533-1.908-15.273
		c1.302,0.259,2.167,6.682,3.123,7.029c1.606,1.04,2.208,0.129,2.125-0.391c-0.453-2.86-1.299-7.55-1.732-10.068
		c-0.436-2.518-2.299-1.517-2.735-3.514c-0.435-1.995-0.435-6.249-0.435-6.249"/>
	<g>
		<path opacity="0.4" fill="#A6836F" d="M224.856,170.47c-0.192-2.056-0.192-4.517-0.192-4.517l-7.723,0.522
			c0.181,1.3,0.104,2.842-0.087,4.379C219.903,170.27,222.826,170.31,224.856,170.47z"/>
	</g>
	<path fill="#DCDFE0" d="M231.434,216.286c5.38,3.474,15.969,3.126,15.969,3.126c-0.695-11.976-2.084-114.204,3.991-134.511
		c-3.819,0-12.102,1.997-14.184,3.385c-2.084,1.388-23.651,46.601-21.743,79.577c6.074-1.563,12.147-0.348,12.147-0.348
		c-0.173-10.586,8.158-48.77,8.158-48.77C235.428,136.275,227.791,195.113,231.434,216.286z"/>
	<path fill="#754C24" d="M239.584,27.537c-5.216,0.303-11.108-6.347,0.076-17.155c0.451-0.453,3.549,1.285,3.549,1.285
		c1.967-8.539,4.914-9.068,5.972-9.144c1.056-0.075,9.597,10.73,12.847,11.638c0.454-2.041,0.756-3.552,1.512-2.948
		c0.754,0.604,4.233,4.383,9.069,5.139c4.836,0.755,10.729,1.436,7.555,8.615c7.633,1.436,5.518,4.458,2.798,9.824
		c-2.723,5.366-1.208,12.016-1.208,12.016l-4.463,1.208C277.29,48.016,242.908,35.547,239.584,27.537z"/>
	<path fill="#FFD8C2" d="M255.212,70.149c0.434,3.818,1.909,10.761,0.175,12.583c-1.738,1.822-3.82,2.168-3.82,2.168
		c5.728,8.592,9.461,10.066,20.133-1.387c-2.691-0.261-1.214,1.128-1.388-0.435c-0.175-1.562-1.041-13.884-1.041-13.884
		L255.212,70.149z"/>
	<g>
		<path opacity="0.4" fill="#A6836F" d="M269.984,79.049c-0.311-4.14-0.714-9.854-0.714-9.854l-14.059,0.955
			c0.32,2.818,1.203,7.334,0.948,10.242C260.379,80.781,265.174,80.512,269.984,79.049z"/>
	</g>
	<path fill="#7A5945" d="M254.923,92.597c0.811,2.893,2.082,4.86,2.082,4.86l1.39,0.347l3.935-4.281l-3.357-3.124L254.923,92.597z"
		/>
	<path fill="#916952" d="M256.592,96.609c-1.989,5.406-6.769,49.625-6.624,53.82c0.141,4.197,3.762,10.777,3.958,10.665
		c1.438-0.809,5.729-7.085,6.013-9.572c0.285-2.49-1.279-50.37-0.782-54.565C259.012,96.6,256.592,96.609,256.592,96.609z"/>
	<path fill="#ADDBC9" d="M255.854,81.661c-2.436,1.679-5.56,3.529-5.56,3.529c0.781,5.208,1.735,8.91,2.92,10.646
		c2.441-3.348,5.757-5.438,5.757-5.438c1.648,2.863,4.05,6.393,4.05,6.393c3.038-1.215,9.461-7.811,9.893-13.017
		c-0.866-0.896-2.752-2.404-2.752-2.404c-1.473,2.256-10.004,8.045-11.046,8.305C256.6,88.807,255.854,81.661,255.854,81.661z"/>
	<path fill="#ECF0F1" d="M251.508,84.38c-1.56,0.348-4.741,0.665-5.667,1.303c-1.507,4.801-2.374,17.038-2.374,17.038l2.893-0.984
		c-1.849,2.083-2.603,3.298-2.603,3.298s-0.462,23.141,3.472,30.488C247.924,124.01,248.964,96.01,251.508,84.38z"/>
	<path fill="#9EAEB3" d="M289.75,134.714c-0.779,0.433,3.558,9.633,5.904,9.633C297.038,140.181,295.217,134.367,289.75,134.714z"/>
	<polygon fill="#FFD8C2" points="293.05,134.106 286.28,136.796 291.254,143.97 295.91,141.569 	"/>
	<g>
		<polygon opacity="0.4" fill="#A6836F" points="293.05,134.106 286.28,136.796 291.254,143.97 295.91,141.569 		"/>
	</g>
	<path fill="#DCDFE0" d="M272.309,83.6c3.646,0.695,9.458,0.261,12.235,1.823c2.775,1.562,35.612,25.941,34.017,39.572
		c-0.954,8.158-18.918,19.353-22.906,19.353c-1.479-8.071-5.904-9.633-5.904-9.633c5.813-3.211,12.673-13.625,11.456-15.622
		c-4.732-7.771-16.143-11.975-16.143-11.975c-3.297,19.092,0.696,45.127,8.332,69.944c7.637,24.821,12.844,39.748,12.844,39.748
		c-10.413,6.245-23.779,4.163-23.779,4.163C275.866,206.047,258.423,138.445,272.309,83.6z"/>
	<path fill="#ECF0F1" d="M277.861,84.294c-1.215,4.859-3.992,17.183-3.992,17.183l-2.862-0.348l1.821,2.864
		c0,0-6.51,36.968-7.115,46.949c-0.521-18.138,0.433-47.991,6.596-67.343C275.693,83.167,277.861,84.294,277.861,84.294z"/>
	<path fill="#FFD8C2" d="M247.138,20.887c-7.402,4.232-9.319,5.138-7.503,16.02c1.813,10.883,3.425,22.57,2.621,31.437
		c0.198,3.023,18.738,10.278,34.458,1.209c1.408-14.309,1.611-33.654-1.613-42.521C271.877,18.166,258.425,15.647,247.138,20.887z"
		/>
	<path fill="#522811" fill-opacity="0.3" d="M276.714,69.553c0.452-4.592,0.78-9.703,0.91-14.821
		c-0.492-3.139-0.913-5.997-1.011-7.774c0-0.227-1.061-1.058-2.043-0.529c-1.131,2.041,0.607,7.028,0.229,8.69
		c-0.381,1.664-6.274,6.196-7.104,6.121c-0.831-0.075,0.077-4.76-1.436-4.156c-11.26,7.558-17.833,4.231-19.045,4.534
		c-1.21,0.302,0.452,4.308-0.226,4.686c-0.553,0.308-2.603-1.332-4.526-3.498c0.011,1.937-0.052,3.793-0.207,5.538
		C242.454,71.367,260.994,78.622,276.714,69.553z"/>
	<g>
		<g>
			<path fill="#E6E6E6" d="M266.6,126.222c0.152,0.35-0.009,0.762-0.359,0.914l-9.147,3.986c-0.351,0.152-0.762-0.009-0.914-0.359
				l-1.976-4.534c-0.152-0.35,0.009-0.761,0.359-0.914l9.148-3.988c0.351-0.152,0.762,0.009,0.914,0.359L266.6,126.222z"/>
		</g>
		<g>
			<path fill="#402206" d="M294.7,161.78c0.152,0.351-0.009,0.762-0.359,0.914l-30.336,13.221c-0.351,0.152-0.762-0.009-0.914-0.359
				l-18.352-42.113c-0.152-0.35,0.009-0.761,0.359-0.914l30.339-13.219c0.351-0.152,0.762,0.009,0.914,0.359L294.7,161.78z"/>
		</g>
	</g>
	<path fill="#FFD8C2" d="M287.93,136.275c-3.386-4.772-5.207-7.376-6.945-6.682c-1.734,0.694-11.365,7.376-11.021,9.024
		c0.348,1.649,5.556,7.378,6.769,7.638c1.217,0.259,7.117-4.86,7.725-3.993c0.606,0.869,2.524,3.912,4.08,4.078
		c2.428,0.26,4.598-2.342,4.165-2.95C292.268,142.784,287.93,136.275,287.93,136.275z"/>
	<path fill="#FFD8C2" d="M276.412,47.083c0.703-7.657,10.576-4.433,9.873,1.109c-0.705,5.541-7.055,10.881-9.37,6.044
		C276.312,48.999,276.412,47.083,276.412,47.083z"/>
	<g>
		<g>
			<g>
				<path fill="#A6836F" d="M256.539,58.948c-0.019,0.054-0.304,0.038-0.796-0.112c-0.483-0.154-1.208-0.427-1.914-1.116
					c-0.34-0.352-0.647-0.833-0.798-1.408c-0.153-0.572-0.153-1.211-0.034-1.838c0.279-1.279,0.905-2.375,1.24-3.664
					c0.778-2.543,0.661-4.98,0.402-6.711c-0.1-0.875-0.271-1.571-0.354-2.063c-0.083-0.492-0.102-0.776-0.041-0.796
					c0.06-0.02,0.193,0.228,0.384,0.696c0.188,0.469,0.461,1.152,0.647,2.043c0.436,1.743,0.67,4.384-0.159,7.088
					c-0.359,1.354-1.04,2.552-1.294,3.582c-0.262,1.064-0.035,2.016,0.488,2.638c0.525,0.623,1.151,0.979,1.573,1.221
					C256.313,58.75,256.562,58.882,256.539,58.948z"/>
			</g>
		</g>
	</g>
	<g>
		<g>
			<g>
				<path fill="#2B1509" d="M268.675,46.279c-0.232,0.119-0.706-0.337-1.343-1.077c-0.608-0.716-1.521-1.841-2.456-2.321
					c-0.212-0.063-0.367-0.121-0.457-0.077c-0.106-0.008-0.229,0.103-0.376,0.24c-0.28,0.327-0.471,0.838-0.627,1.258
					c-0.28,0.875-0.438,1.513-0.707,1.523c-0.23,0.012-0.548-0.597-0.573-1.713c0.023-0.557,0.064-1.252,0.526-2.035
					c0.255-0.373,0.632-0.815,1.24-0.99c0.298-0.119,0.595-0.112,0.9-0.095c0.303,0.017,0.54,0.131,0.812,0.214
					c0.957,0.449,1.453,1.109,1.917,1.677c0.197,0.3,0.378,0.587,0.539,0.858c0.142,0.279,0.261,0.542,0.365,0.785
					C268.829,45.504,268.893,46.169,268.675,46.279z"/>
			</g>
		</g>
	</g>
	<g>
		<g>
			<g>
				<path fill="#2B1509" d="M249.561,47.026c-0.221,0.14-0.734-0.27-1.438-0.946c-0.673-0.656-1.688-1.689-2.664-2.08
					c-0.218-0.042-0.378-0.086-0.464-0.034c-0.107,0.003-0.219,0.124-0.352,0.274c-0.249,0.352-0.392,0.878-0.508,1.311
					c-0.198,0.897-0.294,1.547-0.562,1.583c-0.229,0.034-0.602-0.543-0.731-1.652c-0.028-0.557-0.053-1.253,0.335-2.076
					c0.219-0.395,0.555-0.87,1.144-1.101c0.285-0.146,0.581-0.167,0.887-0.179c0.303-0.011,0.55,0.08,0.828,0.137
					c0.994,0.356,1.551,0.968,2.066,1.489c0.226,0.28,0.432,0.549,0.618,0.804c0.167,0.264,0.311,0.516,0.438,0.747
					C249.642,46.24,249.767,46.896,249.561,47.026z"/>
			</g>
		</g>
	</g>
	<path fill="#754C24" d="M261.121,29.728c-0.377,1.587-0.227,5.819,0.302,5.895c0.53,0.075,3.476-2.116,9.22,3.022
		c0.68-1.436,0.634-3.88,0.227-5.063C270.035,31.164,262.859,27.839,261.121,29.728z"/>
	<path fill="#754C24" d="M245.343,30.521c0.52,1.53,1.249,5.477,0.845,5.611c-0.406,0.133-3.038-1.563-6.232,4.186
		c-0.733-1.347-1.037-3.772-0.883-4.988C239.389,32.842,243.714,28.842,245.343,30.521z"/>
	<path fill="#754C24" d="M240.415,19.451c4.687,3.552,14.998,4.647,20.437,1.927c6.272,1.663,12.359,4.874,13.116,4.949
		c-0.077,5.516-1.359,8.766-0.528,12.167c0.83,3.4,0.905,7.331,0.679,9.295c-0.228,1.964,2.495,3.326,2.495,3.326
		c0.074-4.006,0.982-7.104,1.359-8.087c0.376-0.982,0.074-10.806-1.359-15.416C275.178,23.003,263.843,9.476,240.415,19.451z"/>
	<g>
		<g>
			<g>
				<path fill="#A6836F" d="M264.368,60.636c0.055,0.032-0.019,0.254-0.202,0.633c-0.175,0.384-0.469,0.917-0.925,1.521
					c-0.882,1.194-2.428,2.812-4.721,3.547c-1.129,0.368-2.272,0.473-3.289,0.405c-1.021-0.067-1.905-0.33-2.619-0.586
					c-1.421-0.566-2.131-1.201-2.072-1.289c0.073-0.126,0.888,0.297,2.271,0.673c1.374,0.363,3.387,0.608,5.424-0.073
					c2.049-0.652,3.534-2.046,4.507-3.089c0.497-0.524,0.863-0.986,1.125-1.303C264.138,60.764,264.314,60.604,264.368,60.636z"/>
			</g>
		</g>
	</g>
	<g>
		<g>
			<g>
				<path fill="#A6836F" d="M279.383,53.179c-0.071-0.138,0.662-0.444,1.42-1.245c0.354-0.403,0.587-1.023,0.314-1.548
					c-0.128-0.258-0.374-0.481-0.676-0.581c-0.151-0.051-0.312-0.064-0.475-0.058c-0.009-0.003-0.155,0.045-0.266,0.081
					l-0.347,0.112l-0.706,0.291c0.033-0.207,0.068-0.419,0.104-0.633l0.113-0.688l0.055-0.324l0.05-0.184
					c0.073-0.243,0.113-0.485,0.219-0.715c0.177-0.461,0.395-0.907,0.723-1.271c0.604-0.783,1.719-1.026,2.398-0.723
					c0.706,0.256,1.074,0.739,1.253,1.068c0.184,0.336,0.201,0.553,0.152,0.575c-0.064,0.032-0.192-0.127-0.437-0.359
					c-0.234-0.231-0.622-0.553-1.15-0.662c-0.521-0.127-1.143,0.055-1.567,0.64c-0.226,0.275-0.391,0.645-0.529,1.038
					c-0.085,0.189-0.115,0.414-0.177,0.624l-0.042,0.161c-0.009,0.036-0.003,0.018-0.006,0.03l-0.004,0.027l-0.004,0.022
					c0.023-0.001-0.067,0.012,0.102-0.013c0.29-0.011,0.576,0.026,0.84,0.124c0.526,0.195,0.936,0.603,1.133,1.074
					c0.198,0.471,0.194,0.994,0.029,1.395c-0.069,0.205-0.19,0.372-0.286,0.538c-0.125,0.139-0.245,0.272-0.36,0.399
					C280.209,53.208,279.407,53.254,279.383,53.179z"/>
			</g>
		</g>
	</g>
	<g>
		<g>
			<g>
				<path fill="#A6836F" d="M282.29,132.689c0.017,0.108-0.535,0.509-1.462,1.3c-0.924,0.768-2.21,1.823-3.651,2.965
					c-2.882,2.287-5.314,4.033-5.478,3.834c-0.157-0.192,2.017-2.256,4.909-4.551c1.446-1.147,2.805-2.129,3.842-2.773
					C281.463,132.807,282.256,132.542,282.29,132.689z"/>
			</g>
		</g>
	</g>
	<g>
		<g>
			<g>
				
					<ellipse transform="matrix(-0.8177 0.5757 -0.5757 -0.8177 586.4952 92.8657)" fill="#A6836F" cx="278.541" cy="139.313" rx="6.633" ry="0.457"/>
			</g>
		</g>
	</g>
	<g>
		<g>
			<g>
				
					<ellipse transform="matrix(0.8535 -0.5212 0.5212 0.8535 -32.7028 166.7512)" fill="#A6836F" cx="280.161" cy="141.527" rx="5.744" ry="0.457"/>
			</g>
		</g>
	</g>
	<g>
		<g>
			<g>
				<path fill="#A6836F" d="M222.843,195.809c-0.098,0.045-0.494-0.615-0.857-1.775c-0.377-1.155-0.704-2.793-0.935-4.612
					c-0.464-3.641-0.233-6.647,0.028-6.631c0.244,0.013,0.423,2.928,0.88,6.52c0.228,1.792,0.447,3.411,0.654,4.57
					C222.807,195.04,222.978,195.754,222.843,195.809z"/>
			</g>
		</g>
	</g>
	<g>
		<g>
			<g>
				<path fill="#A6836F" d="M219.747,195.345c-0.056,0.03-0.174-0.104-0.344-0.383c-0.085-0.14-0.183-0.316-0.292-0.526
					c-0.098-0.211-0.167-0.458-0.261-0.731c-0.388-1.096-0.634-2.657-0.791-4.388c-0.114-1.733-0.096-3.31,0.071-4.446
					c0.141-1.139,0.415-1.818,0.518-1.79c0.144,0.031,0.102,0.72,0.129,1.829c0,1.108,0.084,2.646,0.195,4.338
					c0.152,1.686,0.292,3.22,0.505,4.297c0.05,0.27,0.074,0.525,0.121,0.735c0.057,0.206,0.101,0.388,0.132,0.54
					C219.792,195.125,219.803,195.314,219.747,195.345z"/>
			</g>
		</g>
	</g>
	<g>
		<g>
			<g>
				<path fill="#A6836F" d="M216.623,194.013c-0.056,0.029-0.167-0.087-0.323-0.335c-0.152-0.248-0.387-0.621-0.501-1.129
					c-0.342-1.001-0.414-2.443-0.336-3.987c0.217-3.092,0.761-5.498,0.987-5.481c0.277,0.021,0.137,2.526-0.073,5.531
					c-0.076,1.499-0.105,2.853,0.055,3.799c0.026,0.491,0.151,0.853,0.196,1.128C216.676,193.812,216.679,193.983,216.623,194.013z"
					/>
			</g>
		</g>
	</g>
	<g>
		<g>
			<g>
				<path fill="#9FAFB3" d="M235.428,124.994c-0.063-0.009-0.069-0.501-0.028-1.38c0.053-0.877,0.129-2.145,0.194-3.718
					c0.168-3.14,0.356-7.488,0.73-12.285c0.337-4.799,0.909-9.132,1.44-12.247c0.595-3.107,1.124-4.992,1.23-4.966
					c0.14,0.032-0.164,1.958-0.591,5.063c-0.364,3.12-0.831,7.431-1.168,12.22c-0.373,4.784-0.663,9.125-0.997,12.265
					c-0.148,1.569-0.323,2.838-0.485,3.709C235.603,124.527,235.49,125.003,235.428,124.994z"/>
			</g>
		</g>
	</g>
	<g>
		<g>
			<g>
				<path fill="#9FAFB3" d="M305.891,121.05c0.023-0.127,1.036-0.035,2.654,0.093c0.801,0.051,1.791,0.149,2.784,0.061
					c0.109-0.01,0.265-0.039,0.312-0.054c0.008-0.004,0.013-0.009,0.015-0.015c0.001-0.008-0.002-0.01-0.011-0.019l-0.143-0.119
					c-0.369-0.3-0.915-0.535-1.468-0.729c-2.281-0.741-4.546-0.782-6.133-0.699c-1.601,0.101-2.585,0.335-2.627,0.198
					c-0.036-0.102,0.902-0.566,2.557-0.842c1.644-0.251,4.009-0.329,6.498,0.476c0.617,0.223,1.217,0.465,1.758,0.916l0.198,0.181
					l0.215,0.345c0.155,0.217,0.17,0.505,0.03,0.717c-0.122,0.218-0.374,0.334-0.626,0.407c-0.22,0.057-0.339,0.062-0.498,0.076
					c-1.168,0.05-2.122-0.125-2.942-0.258C306.839,121.489,305.868,121.171,305.891,121.05z"/>
			</g>
		</g>
	</g>
	<g>
		<g>
			<g>
				<path fill="#9FAFB3" d="M285.063,107.118c-0.015,0.042-0.332,0.01-0.787-0.304c-0.451-0.311-1.001-0.916-1.436-1.773
					c-0.899-1.711-1.458-4.303-1.646-7.151c-0.189-2.855-0.015-5.443,0.27-7.292c0.277-1.855,0.708-2.954,0.825-2.917
					c0.125,0.036-0.073,1.154-0.182,2.988c-0.116,1.83-0.185,4.373,0,7.16c0.183,2.783,0.628,5.287,1.317,6.938
					c0.333,0.832,0.746,1.419,1.082,1.779C284.846,106.903,285.098,107.044,285.063,107.118z"/>
			</g>
		</g>
	</g>
	<g>
		<g>
			<path fill="#707070" d="M248.192,94.233c0.809-6.304,5.168-12.19,7.911-13.512c0.008,0.493-0.123,1.165-0.164,1.576
				c-2.357,2.102-5.756,7.337-6.369,12.113c-0.033,0.261-0.208,0.47-0.438,0.56c-0.105,0.04-0.221,0.056-0.336,0.041
				C248.413,94.961,248.146,94.613,248.192,94.233z"/>
			<g>
				<path fill="#707070" d="M240.329,120.423c0.124,0,0.209-0.01,0.235-0.015c0.379-0.055,0.666-0.408,0.64-0.786
					c-0.021-0.374-0.338-0.639-0.713-0.584c-0.03,0-0.373,0.03-0.642-0.23c-0.308-0.301-0.437-0.9-0.375-1.734
					c0.521-7.141,1.971-16.434,5.909-20.148c1.107-1.046,2.324-1.557,3.714-1.562c0.002,0,0.002,0,0.002,0
					c3.138,0.401,2.33,7.697,1.473,15.42c-0.237,2.13-0.48,4.333-0.66,6.514c-0.111,1.351-1.188,1.567-1.401,1.597
					c-0.376,0.051-0.666,0.395-0.651,0.774c0.013,0.375,0.333,0.646,0.698,0.598c0.862-0.099,2.541-0.851,2.716-2.971
					c0.178-2.163,0.422-4.355,0.654-6.475c0.974-8.771,1.815-16.346-2.598-16.837l-0.072-0.004
					c-1.776,0.017-3.363,0.656-4.757,1.972c-4.301,4.054-5.848,13.735-6.389,21.14c-0.092,1.276,0.168,2.212,0.78,2.783
					C239.401,120.35,240,120.425,240.329,120.423z"/>
			</g>
			<path fill="#949494" d="M241.476,119.803c-0.054,0.661-0.456,1.196-0.897,1.197c-0.441,0.001-0.759-0.533-0.702-1.192
				c0.053-0.659,0.457-1.196,0.898-1.197C241.217,118.61,241.53,119.144,241.476,119.803z"/>
			<path fill="#949494" d="M249.279,119.484c-0.057,0.66-0.458,1.195-0.898,1.197c-0.442,0.001-0.758-0.531-0.703-1.192
				c0.055-0.659,0.457-1.195,0.897-1.198C249.018,118.291,249.332,118.824,249.279,119.484z"/>
		</g>
		<g>
			<path fill="#707070" d="M271.304,83.072c-0.065-0.139-1.042-1.509-1.122-1.597c-0.021-0.087-0.066-0.424-0.066-0.717
				c0.122-0.032,1.91,0.62,2.438,1.706c0.906,1.865-0.354,3.979-2.102,6.904c-2.371,3.975-5.62,9.417-6.598,18.165
				c-0.041,0.355-0.341,0.618-0.69,0.618c-0.025,0-0.052-0.002-0.077-0.004c-0.38-0.043-0.653-0.386-0.614-0.768
				c1.011-9.045,4.486-14.869,6.789-18.722C270.841,86.011,271.882,84.261,271.304,83.072z"/>
			<path fill="#707070" d="M259.98,110.813c0,2.276,1.363,4.122,3.038,4.122c1.679,0,3.037-1.846,3.037-4.122
				c0-2.276-1.358-4.122-3.037-4.122C261.344,106.69,259.98,108.536,259.98,110.813z"/>
			<ellipse fill="#E6E6E6" cx="262.962" cy="110.697" rx="1.587" ry="2.156"/>
		</g>
	</g>
</g>
<g>
	<path fill="#FFD8C2" d="M172.133,73.098c-0.099,3.841-0.96,10.886,0.928,12.55c1.891,1.664,3.615,3.188,3.615,3.188
		c-4.954,9.06-10.207,10.824-21.84,0.347c2.658-0.494,2.915-4.156,2.949-5.728c0.038-1.571,0.26-10.079,0.26-10.079L172.133,73.098z
		"/>
	<g>
		<path opacity="0.4" fill="#A6836F" d="M172.133,73.098l-14.087,0.278c0,0-0.134,5.145-0.211,8.171
			c4.949,1.259,9.865,1.353,14.118,0.83C171.677,79.521,172.068,75.621,172.133,73.098z"/>
	</g>
	<path fill="#FFD8C2" d="M179.813,46.938c2.255-5.075,6.848-3.061,6.444,3.222c-0.403,6.284-4.271,11.278-8.136,3.303
		C179.411,48.469,179.813,46.938,179.813,46.938z"/>
	<path fill="#B3B3B3" d="M177.793,269.07c0.007,5.353,0.848,10.266,1.175,11.685c6.395,2.509,22.161,4.489,29.769,0.661
		c-1.605-7.241-15.267-0.869-18.993-12.239C186.114,268.479,177.793,269.07,177.793,269.07z"/>
	<path fill="#B3B3B3" d="M152.925,274.14c-0.874,5.686-1.517,10.302-1.517,10.302c-4.44,4.742-11.036,14.864-16.01,12.379
		c-3.197-9.771,5.602-12.255,6.072-22.271C143.476,274.787,152.925,274.14,152.925,274.14z"/>
	<path fill="#B3B3B3" d="M137.595,216.75c7.637-1.388,46.979,0.002,54.614,1.851c1.853-9.487-7.869-50.216-9.719-50.68
		c-1.851-0.462-28.001,4.165-28.696,4.859"/>
	<path fill="#17465C" d="M188.506,158.897c1.272,13.363,0.598,83.919,1.237,110.279c-4.581,2.729-11.881,0.99-11.881,0.99
		c-1.151-17.455-4.47-85.804-6.56-93.021c-3.962-1.066-9.512,1.018-9.512,1.018c-1.819,5.563-7.509,89.417-8.866,95.976
		c-6.306,3.969-11.625,1.737-11.625,1.737c2.302-15.745,0.828-109.068,0.923-114.436
		C148.323,155.633,186.358,158.439,188.506,158.897z"/>
	<path fill="#97D1DE" d="M153.289,86.579c-1.736,1.215-5.511,2.604-5.511,2.604l-2.198,72.605c0,0,29.39,2.084,40.729-1.271
		c5.73-1.695-4.512-68.73-4.686-69.25c-0.176-0.521-4.816-4.208-4.816-4.208s-9.531,4.959-12.25,5.191
		C161.836,92.48,153.289,86.579,153.289,86.579z"/>
	<path fill="#DCDFE0" d="M178.498,88.142c-1.794,17.471,5.031,105.699,7.116,140.931c11.107,1.043,18.744-2.43,19.788-3.819
		c1.56-12.843-10.3-59.646-10.3-74.225c0-14.579-2.199-50.564-2.546-53.862C192.209,93.868,178.498,88.142,178.498,88.142z"/>
	<path fill="#76AB96" d="M163.961,99.943c-0.695,5.902-4.208,50.68-3.862,51.721c0.349,1.043,6.423,7.984,6.597,7.462
		c0.172-0.52,5.207-6.246,5.207-7.462c0-1.214-5.381-51.721-5.381-51.721H163.961z"/>
	<path fill="#669482" d="M160.188,96.472c1.041,1.389,2.515,4.947,3.297,5.294c0.78,0.347,2.863,0.347,3.297,0
		c0.433-0.347,3.124-4.599,3.124-4.599l-4.859-4.513C165.047,92.653,160.708,95.952,160.188,96.472z"/>
	<path fill="#C0EFFA" d="M157.715,83.715c-1.389,0.81-5.367,2.805-5.367,3.269c0,0.463,4.283,12.033,6.711,13.885
		c3.529-4.166,5.497-7.347,5.497-7.347l6.364,5.958c5.96-5.553,6.509-11.643,6.448-11.99c-0.055-0.347-4.381-2.907-5.178-3.804
		c-2.543,4.34-7.634,8.562-7.634,8.562S158.351,86.145,157.715,83.715z"/>
	<path fill="#D69B40" d="M181.961,28.946c1.69,4.753,2.657,9.184,2.093,12.326c-0.563,3.141-0.725,9.988-0.966,10.552
		c-0.242,0.564-1.613,0.725-1.613,0.725s0.97-16.835-0.965-23.924"/>
	<path fill="#FFD8C2" d="M180.347,27.738c3.063,8.539,0.586,18.997,2.098,43.178c0.239,3.866-18.513,11.752-33.425,2.169
		c-1.376-1.928-5.244-39.547-2.182-44.059C149.898,24.516,171.165,17.267,180.347,27.738z"/>
	<path fill="#FFD8C2" d="M145.629,47.555c-2.255-5.075-6.847-3.061-6.444,3.222c0.402,6.283,6.444,12.406,8.216,5.558
		C146.112,51.341,145.629,47.555,145.629,47.555z"/>
	<path fill="#D69B40" d="M146.032,26.611c-1.047-6.605,12.002-12.809,21.508-12.567c9.506,0.241,11.573-2.685,11.573-2.685
		c2.415,3.706,13.479,14.768,2.282,18.957c-3.464-3.544-14.179-7.491-19.897-4.752c-5.72,2.738-12.513,2.255-14.286,4.914
		c3.491,12.566,0.108,13.694,0.672,15.789c0.563,2.094,1.127,6.766,0.805,7.33s-1.933,0.322-1.933,0.322s-0.806-5.477-2.014-7.411
		C143.534,44.574,135.614,27.577,146.032,26.611z"/>
	<path fill="#D69B40" d="M150.649,43.581c-1.502-5.047,5.156-11.6,8.379-6.553c1.181,2.794,1.397,3.976,0.213,3.653
		C158.06,40.358,155.376,39.929,150.649,43.581z"/>
	<path fill="#D69B40" d="M180.308,42.846c1.261-5.116-5.708-11.339-8.685-6.141c-1.047,2.847-1.202,4.037-0.038,3.658
		C172.75,39.984,175.413,39.426,180.308,42.846z"/>
	<g>
		<ellipse fill="#2B1509" cx="157.524" cy="49.113" rx="2.041" ry="3.167"/>
	</g>
	<g>
		<ellipse fill="#2B1509" cx="173.875" cy="48.549" rx="2.041" ry="3.168"/>
	</g>
	<g>
		<g>
			<g>
				<path fill="#A6836F" d="M165.284,60.444c-0.104-0.084,0.422-0.863,1.228-2.114c0.385-0.625,0.878-1.391,1.173-2.24
					c0.073-0.208,0.107-0.423,0.098-0.579c-0.032-0.157-0.029-0.169-0.159-0.224c-0.291-0.106-0.864-0.027-1.379,0.102
					c-0.102-0.02-0.973,0.396-1.182,0.03c-0.189-0.081-0.201-0.394-0.216-0.655l-0.006-0.299l0.003-0.211
					c0.013-0.555,0.047-1.079,0.085-1.579c0.079-0.999,0.18-1.892,0.283-2.642c0.205-1.498,0.431-2.415,0.556-2.398
					c0.125,0.016,0.128,0.949,0.089,2.452c-0.024,0.751-0.053,1.644-0.085,2.634c-0.01,0.491-0.021,1.007-0.031,1.542l0.004,0.309
					l0.003,0.001c0.041-0.011-0.134,0.031,0.283-0.074c0.589-0.119,1.175-0.292,1.925-0.045c0.402,0.113,0.72,0.64,0.699,0.999
					c0.009,0.364-0.075,0.657-0.173,0.914c-0.412,1.017-0.976,1.73-1.442,2.338C166.076,59.891,165.376,60.519,165.284,60.444z"/>
			</g>
		</g>
	</g>
	<path fill="#FFFFFF" d="M156.826,63.183c3.866,1.047,9.022,3.221,17.157,0C169.633,74.379,163.591,75.346,156.826,63.183z"/>
	<path fill="#ECF0F1" d="M178.093,87.273c-0.346,5.901,1.042,63.668,3.354,77.669c1.621-19.439,2.777-47.007,4.052-52.909
		c-1.159-1.735-3.471-4.165-3.471-4.165l3.008-0.81c0.693-3.471,0.809-15.737,0.693-16.199
		C185.614,90.397,178.093,87.273,178.093,87.273z"/>
	<path fill="#DCDFE0" d="M151.25,87.62c1.561,18.108-2.951,105.003-5.034,140.237c-11.108,1.04-20.827-1.736-21.869-3.124
		c-1.563-12.846,13.711-60.282,13.711-74.862c0-14.579-1.215-49.929-0.868-53.226C137.538,93.348,151.25,87.62,151.25,87.62z"/>
	<path fill="#ECF0F1" d="M151.654,86.752c0.347,5.901,0.087,64.102-2.227,78.103c-1.62-19.44-3.906-47.44-5.178-53.342
		c1.157-1.735,3.471-4.165,3.471-4.165l-3.009-0.809c-0.693-3.472-0.81-15.738-0.693-16.2
		C144.134,89.877,151.654,86.752,151.654,86.752z"/>
	<path fill="#DCDFE0" d="M137.306,96.009c-1.967,4.281-18.339,41.018-15.215,47.035c7.058-0.232,16.431-8.909,16.431-8.909
		S140.314,96.24,137.306,96.009z"/>
	<g>
		<path fill="#FFD8C2" d="M173.71,126.545c3.569-1.856,9.271-3.258,12.979-3.795c3.709-0.536,7.987-1.096,8.893-0.067
			c1.424,1.609,3.778,8.356,0.283,10.394c-3.494,2.038-17.841,0.741-20.598,2.322C173.647,134.991,173.71,126.545,173.71,126.545z"
			/>
		<g>
			<path opacity="0.4" fill="#A6836F" d="M189.349,122.389c0.726,5.901,1.432,10.774,1.574,11.746
				c2.164-0.185,3.971-0.494,4.941-1.059c3.495-2.038,1.141-8.785-0.283-10.394C194.888,121.896,192.223,122.039,189.349,122.389z"
				/>
		</g>
		<g>
			<g>
				<g>
					<path fill="#A6836F" d="M184.302,126.02c-0.039-0.247,2.736-0.895,6.22-1.33c1.74-0.221,3.331-0.332,4.492-0.326
						c1.163-0.002,1.889,0.156,1.875,0.266c-0.013,0.142-0.709,0.215-1.834,0.38c-1.136,0.151-2.696,0.359-4.421,0.589
						C187.172,126.031,184.341,126.271,184.302,126.02z"/>
				</g>
			</g>
		</g>
		<g>
			<g>
				<g>
					<path fill="#A6836F" d="M186.26,127.504c-0.003-0.235,2.525-0.513,5.666-0.457c3.146,0.083,5.676,0.355,5.649,0.606
						c-0.026,0.252-2.563,0.391-5.664,0.309C188.803,127.906,186.263,127.774,186.26,127.504z"/>
				</g>
			</g>
		</g>
		<g>
			<g>
				<g>
					<path fill="#A6836F" d="M187.613,129.891c0.013-0.25,2.229-0.349,4.948-0.11c1.359,0.121,2.588,0.31,3.469,0.542
						c0.439,0.116,0.795,0.243,1.03,0.38c0.243,0.128,0.343,0.301,0.293,0.329c-0.059,0.049-0.172,0.021-0.407,0.008
						c-0.249-0.02-0.597-0.046-1.025-0.08c-0.887-0.069-2.099-0.164-3.44-0.269C189.786,130.456,187.6,130.146,187.613,129.891z"/>
				</g>
			</g>
		</g>
	</g>
	<path fill="#DCDFE0" d="M175.548,125.572c4.745,1.39,3.355,9.142,3.355,9.142c-7.057,6.248-45.589,18.399-55.655,13.307
		c-1.967-4.05-2.083-7.174,0.579-11.34C126.488,132.514,149.861,129.623,175.548,125.572z"/>
	<path fill="#ECF0F1" d="M192.324,96.183c1.969,4.281,16.548,40.844,13.424,46.861c-7.06-0.232-14.118-9.836-14.118-9.836
		S189.318,96.414,192.324,96.183z"/>
	<g>
		<g>
			<g>
				<path fill="#9FAFB3" d="M126.603,139.225c-0.102-0.029-0.005-0.79,0.605-1.839c0.596-1.052,1.759-2.303,3.312-3.278
					c1.556-0.97,3.155-1.492,4.338-1.659c1.187-0.178,1.93-0.046,1.928,0.065c0.003,0.14-0.706,0.241-1.788,0.566
					c-1.083,0.314-2.538,0.896-3.992,1.802c-1.451,0.913-2.58,1.983-3.264,2.868C127.047,138.626,126.74,139.274,126.603,139.225z"
					/>
			</g>
		</g>
	</g>
	<g>
		<g>
			<g>
				<path fill="#9FAFB3" d="M139.737,103.935c0.029,0.01,0.068,0.085,0.115,0.198c0.044,0.108,0.094,0.26,0.165,0.499
					c0.132,0.455,0.301,1.117,0.493,1.94c0.378,1.65,0.871,3.922,1.271,6.494c0.101,0.688,0.107,1.317,0.117,1.927
					c0.017,0.612,0,1.2-0.003,1.761c0.001,1.121-0.085,2.134-0.137,2.98c-0.165,1.699-0.402,2.732-0.515,2.714
					c-0.137-0.02-0.13-1.065-0.132-2.738c-0.031-0.842-0.012-1.839-0.06-2.951c-0.016-0.555-0.032-1.138-0.05-1.742
					c-0.021-0.604-0.037-1.234-0.127-1.823C140.05,108.145,139.416,103.978,139.737,103.935z"/>
			</g>
		</g>
	</g>
	<g>
		<path fill="#FFD8C2" d="M152.203,126.412c-3.384-2.17-8.938-4.079-12.583-4.947c-3.645-0.868-7.854-1.81-8.851-0.868
			c-1.562,1.476-4.512,7.984-1.215,10.327c3.298,2.344,17.703,2.344,20.307,4.166C151.508,134.829,152.203,126.412,152.203,126.412z
			"/>
		<g>
			<path opacity="0.4" fill="#A6836F" d="M151.683,126.092c-0.297,2.465-0.987,6.843-2.169,7.029
				c-2.604-1.821-17.009-1.821-20.307-4.166c-0.543-0.386-0.903-0.891-1.14-1.462c-0.014,1.381,0.378,2.642,1.487,3.429
				c3.298,2.344,17.703,2.344,20.307,4.166c1.647-0.261,2.342-8.678,2.342-8.678C152.037,126.305,151.86,126.198,151.683,126.092z"
				/>
		</g>
		<g>
			<g>
				<g>
					<path fill="#A6836F" d="M141.705,124.936c-0.062,0.246-2.859-0.248-6.269-0.99c-1.697-0.384-3.232-0.731-4.35-0.984
						c-1.105-0.265-1.792-0.4-1.792-0.542c-0.004-0.111,0.733-0.204,1.892-0.097c1.156,0.099,2.731,0.352,4.445,0.729
						C139.06,123.798,141.766,124.692,141.705,124.936z"/>
				</g>
			</g>
		</g>
		<g>
			<g>
				<g>
					<path fill="#A6836F" d="M139.62,126.238c-0.027,0.268-2.568,0.171-5.668-0.052c-3.096-0.197-5.609-0.564-5.613-0.816
						c-0.003-0.253,2.54-0.297,5.68-0.097C137.152,125.499,139.644,126.003,139.62,126.238z"/>
				</g>
			</g>
		</g>
		<g>
			<g>
				<g>
					<path fill="#A6836F" d="M138.059,128.495c-0.01,0.254-2.215,0.366-4.921,0.359c-1.346-0.017-2.562-0.031-3.452-0.042
						c-0.43-0.005-0.778-0.01-1.028-0.013c-0.235-0.009-0.351,0.01-0.405-0.044c-0.047-0.033,0.068-0.195,0.321-0.302
						c0.248-0.115,0.612-0.21,1.061-0.286c0.899-0.153,2.139-0.23,3.504-0.229C135.87,127.946,138.068,128.244,138.059,128.495z"/>
				</g>
			</g>
		</g>
	</g>
	<path fill="#ECF0F1" d="M152.175,125.572c-4.745,1.39-3.356,9.142-3.356,9.142c7.058,6.248,45.589,18.399,55.656,13.307
		c2.573-3.646,2.429-7.29-0.58-11.34C200.947,132.712,177.862,129.623,152.175,125.572z"/>
	<g>
		<g>
			<g>
				<path fill="#DCDFE0" d="M201.465,138.763c-0.137,0.049-0.443-0.599-1.138-1.475c-0.684-0.884-1.813-1.956-3.263-2.868
					c-1.454-0.906-2.908-1.488-3.992-1.802c-1.081-0.325-1.79-0.425-1.787-0.565c-0.002-0.112,0.741-0.244,1.928-0.067
					c1.184,0.167,2.783,0.689,4.338,1.659c1.553,0.975,2.716,2.227,3.311,3.279C201.471,137.974,201.566,138.734,201.465,138.763z"
					/>
			</g>
		</g>
	</g>
	<path fill="#DCDFE0" d="M178.743,279.627c0.088,0.483,0.164,0.866,0.225,1.128c6.395,2.509,22.161,4.489,29.769,0.661
		c-0.087-0.385-0.214-0.728-0.368-1.042C199.219,284.339,185.703,280.782,178.743,279.627z"/>
	<path fill="#DCDFE0" d="M151.408,284.441c0,0,0.118-0.843,0.319-2.243c-8.727,11.104-12.874,14.522-16.713,13.214
		c0.101,0.453,0.224,0.919,0.384,1.408C140.373,299.306,146.968,289.184,151.408,284.441z"/>
	<g>
		<g>
			<g>
				<path fill="#A6836F" d="M144.635,55.396c0.006,0.081-0.758,0.214-1.629-0.603c-0.405-0.403-0.757-1.137-0.558-1.968
					c0.094-0.406,0.341-0.816,0.716-1.097l0.223-0.152l0.003-0.004l-0.001,0.005c-0.008-0.043-0.016-0.161-0.039-0.236
					c-0.14-0.678-0.408-1.321-0.762-1.744c-0.17-0.222-0.383-0.335-0.471-0.342c-0.076-0.023-0.208,0.073-0.307,0.258
					c-0.342,0.792-0.347,1.498-0.502,1.479c-0.063,0.002-0.122-0.152-0.172-0.443c-0.047-0.291-0.084-0.717,0.079-1.29
					c0.09-0.26,0.319-0.7,0.857-0.761c0.508-0.024,0.874,0.258,1.135,0.527c0.542,0.567,0.868,1.319,1.042,2.138
					c0.029,0.111,0.032,0.185,0.051,0.329l0.07,0.565l0.009,0.07c-0.016,0.013-0.041,0.02-0.061,0.029l-0.127,0.054l-0.252,0.108
					l-0.121,0.052l-0.041,0.028l-0.082,0.052c-0.211,0.147-0.358,0.359-0.433,0.594c-0.158,0.478-0.005,0.991,0.24,1.333
					C144.015,55.084,144.689,55.25,144.635,55.396z"/>
			</g>
		</g>
	</g>
	<g>
		<g>
			<g>
				<path fill="#A6836F" d="M158.17,62.539c0.078,0.245-0.548,0.654-1.354,1.016c-0.815,0.338-1.497,0.552-1.654,0.327
					c-0.139-0.188,0.417-0.805,1.287-1.166C157.307,62.332,158.097,62.301,158.17,62.539z"/>
			</g>
		</g>
	</g>
</g>
<g>
	<path fill="#B3B3B3" d="M89.751,210.906c-8.332-0.348-47.556,1.04-55.539,3.472c2.43-14.058,20.306-42.87,20.306-42.87
		l31.067,1.736"/>
	<path fill="#97D1DE" d="M74.009,271.194c-0.592,5.319-0.304,10.295-0.139,11.74c6.074,3.212,21.521,6.942,29.505,3.992
		c-0.781-7.376-15.07-2.575-17.501-14.291C82.345,271.54,74.009,271.194,74.009,271.194z"/>
	<path fill="#97D1DE" d="M48.732,273.445c-1.504,5.556-2.661,10.07-2.661,10.07c-5.901,4.51-18.05,7.52-21.753,6.825
		c-2.083-10.068,11.397-7.868,12.983-17.77C39.269,273.035,48.732,273.445,48.732,273.445z"/>
	<path d="M96.288,166.534c-0.231,13.421-8.1,79.837-10.414,106.102c-4.86,2.199-11.917-0.345-11.917-0.345
		c0.81-17.472,5.167-85.765,3.893-93.17c-3.818-1.504-9.566-0.05-9.566-0.05c-2.43,5.321-17.469,88.011-19.552,94.374
		c-6.711,3.24-11.746,0.429-11.746,0.429c4.05-15.39,12.787-103.062,13.481-108.383C57.179,160.4,94.206,165.839,96.288,166.534z"/>
	<path fill="#BCBEBF" d="M83.589,86.203c0.463,8.563,8.534,66.677,6.682,79.867c-17.125,0.347-29.39,1.042-29.39,1.042L58.452,86
		C58.452,86,83.358,84.468,83.589,86.203z"/>
	<path fill="#9EAEB3" d="M116.653,167.646c0.217,2.343-12.192,0.911-12.149-0.131C104.85,165.174,115.438,164,116.653,167.646z"/>
	<path fill="#DB925E" d="M115.177,166.476c-0.434,3.124,0.608,7.637,1.172,10.153c0.411,1.833,1.215,6.551,1.735,11.237
		c0.521,4.687-1.388,5.989-3.602,6.899c-1.928,0.795-5.727,2.43-8.59-0.347c-0.217-0.911,3.21-15.533,1.908-15.273
		c-1.3,0.259-2.169,6.682-3.123,7.029c-1.605,1.04-2.209,0.129-2.126-0.391c0.455-2.86,1.302-7.55,1.735-10.068
		c0.434-2.518,2.3-1.517,2.734-3.514c0.433-1.995,0.433-6.249,0.433-6.249"/>
	<path fill="#A85920" fill-opacity="0.5" d="M115.384,171.745c-0.273-1.822-0.422-3.718-0.207-5.27l-7.724-0.522
		c0,0,0,3.241-0.289,5.393C109.226,171.175,112.242,171.125,115.384,171.745z"/>
	<path fill="#DCDFE0" d="M101.032,218.022c-5.38,3.472-15.968,3.125-15.968,3.125c0.694-11.979,1.736-115.939-4.339-136.247
		c3.819,0,12.102,1.997,14.184,3.385c2.083,1.388,23.653,46.601,21.744,79.577c-6.074-1.563-12.149-0.348-12.149-0.348
		c0.174-10.586-8.156-48.77-8.156-48.77C96.693,136.275,104.677,196.849,101.032,218.022z"/>
	<path fill="#DB925E" d="M76.907,70.149c-0.435,3.818-1.909,10.761-0.173,12.583c1.735,1.822,3.817,2.168,3.817,2.168
		c-5.728,8.592-9.459,10.066-20.133-1.387c2.691-0.261,1.215,1.128,1.388-0.435c0.174-1.562,1.042-13.884,1.042-13.884
		L76.907,70.149z"/>
	<path fill="#A85920" fill-opacity="0.5" d="M62.135,79.049c0.312-4.14,0.714-9.854,0.714-9.854l14.059,0.955
		c-0.32,2.818-1.204,7.334-0.949,10.242C71.74,80.781,66.945,80.512,62.135,79.049z"/>
	<path fill="#686D8A" d="M77.196,92.597c-0.809,2.893-2.083,4.86-2.083,4.86l-1.388,0.347l-3.934-4.281l3.355-3.124L77.196,92.597z"
		/>
	<path fill="#7A80A1" d="M75.525,96.609c1.991,5.406,6.771,49.625,6.628,53.82c-0.143,4.197-3.764,10.777-3.959,10.665
		c-1.44-0.809-5.729-7.085-6.013-9.572c-0.285-2.49,1.282-50.37,0.784-54.565C73.106,96.6,75.525,96.609,75.525,96.609z"/>
	<path fill="#DCDFE0" d="M76.264,81.661c2.437,1.679,5.561,3.529,5.561,3.529c-0.781,5.208-1.735,8.91-2.921,10.646
		c-2.441-3.348-5.756-5.438-5.756-5.438c-1.649,2.863-4.049,6.393-4.049,6.393c-3.038-1.215-9.459-7.811-9.894-13.017
		c0.868-0.896,2.752-2.404,2.752-2.404c1.475,2.256,10.005,8.045,11.046,8.305C75.519,88.807,76.264,81.661,76.264,81.661z"/>
	<path fill="#ECF0F1" d="M80.61,84.38c1.562,0.348,4.282,0.493,5.207,1.128c1.504,4.802,2.835,17.212,2.835,17.212l-2.893-0.984
		c1.852,2.083,2.604,3.298,2.604,3.298s0.781,31.616-3.153,38.964C84.514,132.486,83.155,96.01,80.61,84.38z"/>
	<path fill="#DCDFE0" d="M59.812,83.6c-3.645,0.695-10.038,1.303-12.815,2.865s0.058,20.653,0.058,20.653
		c3.298,19.092-0.693,45.127-8.33,69.944c-7.637,24.821-12.843,39.748-12.843,39.748c10.413,6.245,29.678,5.032,29.678,5.032
		C62.154,206.914,73.696,138.445,59.812,83.6z"/>
	<path fill="#ECF0F1" d="M53.881,84.555c1.215,4.859,4.368,16.922,4.368,16.922l2.864-0.348l-1.822,2.864
		c0,0,6.479,33.497,7.173,39.833c0.521-18.138-0.491-40.875-6.653-60.227C56.427,83.167,53.881,84.555,53.881,84.555z"/>
	<path fill="#DB925E" d="M84.979,20.887c7.406,4.232,9.321,5.138,7.507,16.02c-1.813,10.883-3.427,22.57-2.621,31.437
		c-0.201,3.023-18.741,10.278-34.459,1.209c-1.411-14.309-1.612-33.654,1.612-42.521C60.243,18.166,73.694,15.647,84.979,20.887z"/>
	<g>
		<g>
			<path fill="#916952" d="M59.483,188.504c-0.361,0.123-0.557,0.52-0.434,0.881l3.216,9.448c0.123,0.361,0.52,0.557,0.881,0.434
				l4.683-1.596c0.361-0.123,0.557-0.52,0.434-0.881l-3.216-9.446c-0.123-0.361-0.52-0.557-0.881-0.434L59.483,188.504z"/>
		</g>
		<g>
			<path fill="#402206" d="M14.273,191.688c-0.361,0.123-0.557,0.52-0.434,0.881l10.665,31.328c0.123,0.361,0.52,0.557,0.881,0.434
				l43.485-14.807c0.361-0.123,0.557-0.52,0.434-0.881l-10.665-31.326c-0.123-0.361-0.52-0.557-0.881-0.434L14.273,191.688z"/>
		</g>
	</g>
	<path fill="#DB925E" d="M55.709,47.083c-0.706-7.657-10.581-4.433-9.874,1.109c0.705,5.541,7.053,10.881,9.369,6.044
		C55.81,48.999,55.709,47.083,55.709,47.083z"/>
	<g>
		<g>
			<g>
				<path fill="#7A431C" d="M75.58,58.947c-0.022-0.065,0.227-0.197,0.655-0.438c0.422-0.242,1.049-0.599,1.573-1.221
					c0.524-0.623,0.75-1.574,0.489-2.639c-0.253-1.03-0.935-2.229-1.294-3.582c-0.83-2.704-0.595-5.345-0.159-7.088
					c0.187-0.892,0.458-1.575,0.647-2.043c0.19-0.469,0.324-0.716,0.383-0.696c0.061,0.02,0.042,0.304-0.041,0.796
					c-0.082,0.493-0.254,1.188-0.354,2.063c-0.259,1.731-0.376,4.168,0.402,6.711c0.335,1.289,0.962,2.385,1.241,3.664
					c0.119,0.626,0.119,1.266-0.034,1.838c-0.15,0.575-0.458,1.056-0.798,1.408c-0.706,0.689-1.43,0.962-1.915,1.116
					C75.884,58.985,75.598,59.001,75.58,58.947z"/>
			</g>
		</g>
	</g>
	<g>
		<g>
			<g>
				<path fill="#2B1509" d="M63.441,46.278c-0.216-0.109-0.153-0.774,0.241-1.752c0.104-0.242,0.225-0.506,0.366-0.785
					c0.162-0.271,0.342-0.559,0.54-0.858c0.464-0.568,0.96-1.229,1.917-1.677c0.271-0.083,0.509-0.197,0.812-0.214
					c0.305-0.017,0.603-0.024,0.9,0.095c0.608,0.175,0.986,0.618,1.241,0.99c0.462,0.783,0.503,1.478,0.527,2.035
					c-0.025,1.116-0.342,1.726-0.572,1.713c-0.271-0.01-0.428-0.648-0.708-1.523c-0.156-0.419-0.347-0.931-0.628-1.258
					c-0.147-0.137-0.269-0.248-0.375-0.24c-0.09-0.044-0.246,0.014-0.458,0.077c-0.936,0.48-1.848,1.605-2.457,2.321
					C64.148,45.941,63.675,46.397,63.441,46.278z"/>
			</g>
		</g>
	</g>
	<g>
		<g>
			<g>
				<path fill="#2B1509" d="M82.559,47.025c-0.205-0.129-0.08-0.785,0.404-1.722c0.127-0.231,0.271-0.482,0.438-0.747
					c0.187-0.255,0.393-0.524,0.618-0.804c0.515-0.522,1.071-1.133,2.066-1.49c0.278-0.057,0.525-0.148,0.828-0.137
					c0.306,0.012,0.603,0.033,0.887,0.179c0.589,0.232,0.924,0.708,1.143,1.102c0.387,0.823,0.362,1.519,0.333,2.076
					c-0.129,1.108-0.502,1.686-0.729,1.652c-0.269-0.035-0.365-0.685-0.563-1.583c-0.116-0.432-0.258-0.959-0.507-1.311
					c-0.134-0.15-0.244-0.272-0.352-0.274c-0.086-0.053-0.246-0.009-0.463,0.034c-0.977,0.39-1.99,1.424-2.664,2.08
					C83.294,46.756,82.78,47.166,82.559,47.025z"/>
			</g>
		</g>
	</g>
	<path fill="#452614" d="M70.999,29.728c0.377,1.587,0.227,5.819-0.303,5.895c-0.528,0.075-3.476-2.116-9.219,3.022
		c-0.68-1.436-0.634-3.88-0.228-5.063C62.082,31.164,69.26,27.839,70.999,29.728z"/>
	<path fill="#452614" d="M86.776,30.521c-0.518,1.53-1.249,5.477-0.843,5.611c0.405,0.133,3.038-1.563,6.23,4.186
		c0.734-1.347,1.039-3.772,0.883-4.988C92.73,32.842,88.406,28.842,86.776,30.521z"/>
	<path fill="#452614" d="M92.499,25.978c-4.686,3.551-15.387-1.532-20.828-4.252c-6.711-2.43-13.711,3.558-13.52,4.602
		c0.076,5.516,1.361,8.766,0.529,12.167c-0.831,3.4-0.907,7.331-0.68,9.295c0.227,1.964-2.494,3.326-2.494,3.326
		c-0.075-4.006-0.982-7.104-1.36-8.087c-0.378-0.982-0.076-10.806,1.36-15.416C56.942,23.003,73.753,8.448,92.499,25.978z"/>
	<g>
		<g>
			<g>
				<path fill="#7A431C" d="M67.75,60.636c0.054-0.032,0.23,0.127,0.5,0.439c0.262,0.317,0.628,0.779,1.125,1.303
					c0.973,1.043,2.458,2.437,4.506,3.089c2.037,0.681,4.051,0.437,5.424,0.074c1.383-0.376,2.198-0.8,2.271-0.675
					c0.059,0.088-0.651,0.725-2.072,1.291c-0.714,0.256-1.598,0.519-2.62,0.586c-1.017,0.067-2.161-0.038-3.289-0.406
					c-2.293-0.735-3.839-2.354-4.721-3.547c-0.457-0.604-0.751-1.138-0.926-1.521C67.769,60.89,67.695,60.668,67.75,60.636z"/>
			</g>
		</g>
	</g>
	<g>
		<g>
			<g>
				<path fill="#7A431C" d="M52.736,53.18c-0.024,0.074-0.826,0.028-1.873-0.805c-0.115-0.127-0.235-0.26-0.36-0.399
					c-0.096-0.166-0.217-0.333-0.286-0.538c-0.165-0.401-0.168-0.924,0.029-1.395c0.197-0.472,0.606-0.879,1.132-1.074
					c0.264-0.099,0.55-0.136,0.84-0.125c0.169,0.024,0.078,0.012,0.102,0.013l-0.004-0.022l-0.004-0.027
					c-0.002-0.012,0.003,0.006-0.006-0.03l-0.042-0.161c-0.062-0.21-0.092-0.434-0.176-0.624c-0.139-0.394-0.304-0.763-0.529-1.038
					c-0.425-0.585-1.047-0.768-1.567-0.64c-0.529,0.109-0.917,0.431-1.151,0.662c-0.243,0.233-0.372,0.393-0.436,0.36
					c-0.049-0.022-0.031-0.238,0.151-0.575c0.179-0.329,0.546-0.812,1.252-1.068c0.681-0.303,1.795-0.06,2.398,0.723
					c0.328,0.364,0.546,0.81,0.723,1.271c0.105,0.23,0.146,0.473,0.219,0.715l0.049,0.184l0.056,0.323l0.113,0.688
					c0.035,0.214,0.069,0.427,0.103,0.634l-0.706-0.291l-0.346-0.112c-0.111-0.036-0.257-0.084-0.266-0.081
					c-0.163-0.006-0.323,0.007-0.475,0.058c-0.301,0.1-0.548,0.323-0.675,0.582c-0.272,0.525-0.04,1.144,0.315,1.547
					C52.074,52.735,52.807,53.041,52.736,53.18z"/>
			</g>
		</g>
	</g>
	<g>
		<path fill="#9EAEB3" d="M26.17,174.632c0.376,1.735,13.625-0.173,13.422-2.774C38.521,167.952,26.141,168.646,26.17,174.632z"/>
		<path fill="#DB925E" d="M36.612,169.34c0.087,3.383,1.215,11.539,1.215,11.539l-8.938,1.736l-0.752-12.147"/>
		<path fill="#A85920" fill-opacity="0.5" d="M36.612,169.34l-8.475,1.128l0.455,7.341c2.935-1.369,6.235-1.955,8.599-1.951
			C36.918,173.52,36.652,170.915,36.612,169.34z"/>
		<path fill="#DB925E" d="M37.686,179.512c5.808-0.713,8.959-1.121,9.616,0.631c0.656,1.751,2.206,13.371,0.752,14.227
			c-1.452,0.854-9.193,0.863-10.204,0.141c-1.011-0.724-1.201-8.532-2.252-8.397c-1.05,0.136-4.59,0.768-5.761-0.269
			c-1.829-1.618-1.367-4.978-0.625-5.064C29.953,180.689,37.686,179.512,37.686,179.512z"/>
		<g>
			<g>
				<g>
					<path fill="#7A431C" d="M44.136,181.268c0.038-0.04,0.21,0.152,0.312,0.501c0.125,0.352,0.231,0.862,0.335,1.496
						c0.205,1.268,0.371,3.024,0.473,4.966c0.2,3.885,0.109,7.035-0.131,7.047c-0.265,0.014-0.584-3.128-0.783-6.998
						c-0.102-1.936-0.165-3.688-0.203-4.952C44.116,182.043,44.047,181.327,44.136,181.268z"/>
				</g>
			</g>
		</g>
		<g>
			<g>
				<g>
					
						<ellipse transform="matrix(-0.1254 -0.9921 0.9921 -0.1254 -140.0078 253.5704)" fill="#7A431C" cx="41.764" cy="188.498" rx="6.633" ry="0.457"/>
				</g>
			</g>
		</g>
		<g>
			<g>
				<g>
					
						<ellipse transform="matrix(-0.1897 -0.9818 0.9818 -0.1897 -138.9168 262.9415)" fill="#7A431C" cx="39.037" cy="188.791" rx="5.745" ry="0.457"/>
				</g>
			</g>
		</g>
	</g>
	<g>
		<g>
			<g>
				<path fill="#7A431C" d="M109.276,195.809c-0.134-0.055,0.037-0.769,0.23-1.929c0.208-1.159,0.428-2.778,0.655-4.57
					c0.458-3.592,0.635-6.507,0.879-6.52c0.262-0.017,0.494,2.99,0.03,6.631c-0.231,1.82-0.558,3.457-0.936,4.612
					C109.771,195.193,109.375,195.854,109.276,195.809z"/>
			</g>
		</g>
	</g>
	<g>
		<g>
			<g>
				<path fill="#7A431C" d="M112.371,195.345c-0.055-0.03-0.044-0.22,0.018-0.525c0.031-0.152,0.075-0.334,0.131-0.54
					c0.047-0.21,0.072-0.466,0.122-0.735c0.213-1.076,0.353-2.611,0.506-4.297c0.111-1.692,0.195-3.229,0.195-4.338
					c0.027-1.108-0.015-1.798,0.128-1.829c0.103-0.028,0.377,0.651,0.518,1.79c0.167,1.137,0.186,2.713,0.071,4.446
					c-0.157,1.73-0.403,3.292-0.792,4.388c-0.094,0.273-0.163,0.521-0.261,0.732c-0.109,0.209-0.207,0.386-0.292,0.525
					C112.545,195.241,112.427,195.375,112.371,195.345z"/>
			</g>
		</g>
	</g>
	<g>
		<g>
			<g>
				<path fill="#7A431C" d="M115.495,194.013c-0.056-0.029-0.053-0.201-0.004-0.475c0.045-0.275,0.171-0.637,0.197-1.128
					c0.161-0.946,0.13-2.3,0.055-3.799c-0.211-3.004-0.351-5.511-0.074-5.531c0.228-0.017,0.77,2.391,0.988,5.481
					c0.079,1.545,0.006,2.986-0.336,3.988c-0.114,0.507-0.349,0.881-0.501,1.128C115.662,193.926,115.551,194.042,115.495,194.013z"
					/>
			</g>
		</g>
	</g>
	<g>
		<g>
			<g>
				<path fill="#9FAFB3" d="M96.693,124.994c-0.13,0.006-0.326-1.936-0.579-5.076c-0.241-3.141-0.569-7.476-0.988-12.256
					c-0.412-4.782-0.947-9.088-1.366-12.203c-0.459-3.105-0.774-5.03-0.637-5.062c0.108-0.026,0.648,1.855,1.275,4.955
					c0.584,3.105,1.225,7.429,1.639,12.228c0.42,4.797,0.647,9.151,0.722,12.303C96.848,123.036,96.815,124.988,96.693,124.994z"/>
			</g>
		</g>
	</g>
	<path fill="#DCDFE0" d="M47.547,86.29c-2.545,0.232-7.608,2.718-13.163,20.422c-5.553,17.704-11.223,25.919-11.223,33.208
		s1.389,31.587,3.009,34.711c4.628-3.124,11.456-3.702,13.422-2.774c0.232-15.392-5.785-28.812,4.281-47.673
		C49.543,113.887,52.984,105.614,47.547,86.29z"/>
	<path fill="none" stroke="#000000" stroke-width="1.3885" stroke-miterlimit="10" d="M61.848,39.796
		c-1.354,0.581-1.644,7.396-0.971,8.217c0.672,0.823,10.982,1.346,11.654,0.897c0.673-0.448,1.569-7.471,1.42-8.218
		C73.802,39.945,68.646,36.882,61.848,39.796z"/>
	<path fill="none" stroke="#000000" stroke-width="1.3885" stroke-miterlimit="10" d="M81.338,40.704
		c-1.391,0.485-2.149,7.266-1.534,8.132c0.614,0.867,10.863,2.098,11.565,1.697c0.701-0.401,2.079-7.345,1.981-8.102
		C93.254,41.676,88.322,38.265,81.338,40.704z"/>
	<path fill="none" stroke="#000000" stroke-width="1.3885" stroke-linecap="round" stroke-miterlimit="10" d="M73.578,44.876
		c1.271-1.418,5.566-1.488,6.163,0.454"/>
	
		<line fill="none" stroke="#000000" stroke-width="1.3885" stroke-linecap="round" stroke-miterlimit="10" x1="54.489" y1="44.115" x2="60.476" y2="43.334"/>
	<g>
		<g>
			<g>
				<path fill="#9FAFB3" d="M48.154,115.969c-0.145-0.058,0.321-1.366,0.833-3.53c0.513-2.163,1.032-5.197,1.151-8.584
					c0.138-3.381-0.125-6.457-0.546-8.625c-0.187-1.094-0.455-1.943-0.638-2.534c-0.205-0.577-0.339-0.9-0.279-0.939
					c0.045-0.031,0.288,0.235,0.605,0.796c0.293,0.568,0.668,1.427,0.942,2.532c0.598,2.199,0.972,5.346,0.83,8.805
					c-0.122,3.464-0.757,6.56-1.442,8.719C48.927,114.774,48.242,116.008,48.154,115.969z"/>
			</g>
		</g>
	</g>
	<g>
		<g>
			<path fill="#707070" d="M83.914,94.233c-0.809-6.304-5.167-12.19-7.91-13.512c-0.008,0.493,0.121,1.165,0.164,1.576
				c2.355,2.102,5.756,7.337,6.368,12.113c0.034,0.261,0.209,0.47,0.439,0.56c0.104,0.04,0.219,0.056,0.337,0.041
				C83.694,94.961,83.962,94.613,83.914,94.233z"/>
			<path fill="#FFFFFF" d="M91.778,120.423c-0.125,0-0.209-0.01-0.236-0.015c-0.375-0.055-0.663-0.408-0.638-0.786
				c0.021-0.374,0.338-0.639,0.711-0.584c0.031,0,0.375,0.03,0.642-0.23c0.307-0.301,0.438-0.9,0.377-1.734
				c-0.522-7.141-1.971-16.434-5.909-20.148c-1.11-1.046-2.325-1.557-3.714-1.562c0,0-0.002,0-0.002,0
				c-3.14,0.401-2.331,7.697-1.474,15.42c0.237,2.13,0.481,4.333,0.661,6.514c0.111,1.351,1.187,1.567,1.402,1.597
				c0.374,0.051,0.666,0.395,0.651,0.774c-0.015,0.375-0.333,0.646-0.699,0.598c-0.863-0.099-2.541-0.851-2.715-2.971
				c-0.177-2.163-0.421-4.355-0.657-6.475c-0.973-8.771-1.813-16.346,2.601-16.837l0.07-0.004c1.779,0.017,3.366,0.656,4.759,1.972
				c4.299,4.054,5.847,13.735,6.387,21.14c0.093,1.276-0.169,2.212-0.779,2.783C92.706,120.35,92.106,120.425,91.778,120.423z"/>
			<path fill="#949494" d="M90.631,119.803c0.054,0.661,0.456,1.196,0.898,1.197c0.441,0.001,0.756-0.533,0.702-1.192
				c-0.054-0.659-0.457-1.196-0.898-1.197C90.891,118.61,90.577,119.144,90.631,119.803z"/>
			<path fill="#949494" d="M82.83,119.484c0.054,0.66,0.456,1.195,0.898,1.197s0.756-0.531,0.702-1.192
				c-0.054-0.659-0.457-1.195-0.898-1.198C83.09,118.291,82.774,118.824,82.83,119.484z"/>
		</g>
		<g>
			<path fill="#707070" d="M60.803,83.072c0.068-0.139,1.041-1.509,1.124-1.597c0.021-0.087,0.065-0.424,0.065-0.717
				c-0.12-0.032-1.909,0.62-2.438,1.706c-0.906,1.865,0.355,3.979,2.103,6.904c2.372,3.975,5.62,9.417,6.598,18.165
				c0.04,0.355,0.341,0.618,0.689,0.618c0.026,0,0.051-0.002,0.078-0.004c0.381-0.043,0.655-0.386,0.613-0.768
				c-1.01-9.045-4.486-14.869-6.786-18.722C61.269,86.011,60.225,84.261,60.803,83.072z"/>
			<ellipse fill="#FFFFFF" cx="69.088" cy="110.813" rx="3.037" ry="4.122"/>
			<ellipse fill="#DCDFE0" cx="69.145" cy="110.697" rx="1.587" ry="2.156"/>
		</g>
	</g>
</g>
</svg>
